<?xml version="1.0" encoding="UTF-8" standalone="no"?>
<!DOCTYPE svg PUBLIC "-//W3C//DTD SVG 1.1//EN"
 "http://www.w3.org/Graphics/SVG/1.1/DTD/svg11.dtd">
<!-- Generated by graphviz version 2.38.0 (20140413.2041)
 -->
<!-- Title: d1e17 Pages: 1 -->
<svg width="821pt" height="593pt"
 viewBox="0.00 0.00 821.00 593.00" xmlns="http://www.w3.org/2000/svg" xmlns:xlink="http://www.w3.org/1999/xlink">
<g id="graph0" class="graph" transform="scale(1 1) rotate(0) translate(4 589)">
<title>d1e17</title>
<polygon fill="white" stroke="none" points="-4,4 -4,-589 817,-589 817,4 -4,4"/>
<text text-anchor="middle" x="406.5" y="-7.8" font-family="Times,serif" font-size="14.00">Powered by http://rhizomik.net</text>
<!-- http://khalidaloufi.sa/quran#5855 -->
<g id="node1" class="node"><title>http://khalidaloufi.sa/quran#5855</title>
<g id="a_node1"><a xlink:href="http://khalidaloufi.sa/quran#5855" xlink:title="http://khalidaloufi.sa/quran#5855">
<polygon fill="none" stroke="black" points="264,-311.5 0,-311.5 0,-292.5 264,-292.5 264,-311.5"/>
<text text-anchor="middle" x="132" y="-299.5" font-family="Times,serif" font-size="10.00" fill="blue">http://khalidaloufi.sa/quran#5855</text>
</a>
</g>
</g>
<!-- &quot;58&quot; -->
<g id="node2" class="node"><title>&quot;58&quot;</title>
<text text-anchor="middle" x="658.5" y="-560.5" font-family="Times,serif" font-size="10.00">&quot;58&quot;</text>
</g>
<!-- http://khalidaloufi.sa/quran#5855&#45;&gt;&quot;58&quot; -->
<g id="edge1" class="edge"><title>http://khalidaloufi.sa/quran#5855&#45;&gt;&quot;58&quot;</title>
<path fill="none" stroke="blue" d="M135.936,-311.517C147.231,-346.337 191.476,-467.453 275,-519 385.646,-587.286 548.979,-577.204 621.053,-568.422"/>
<polygon fill="blue" stroke="blue" points="621.94,-571.837 631.412,-567.091 621.047,-564.894 621.94,-571.837"/>
<text text-anchor="middle" x="384" y="-577" font-family="Times,serif" font-size="10.00">quran:hizb</text>
</g>
<!-- &quot;582&quot; -->
<g id="node3" class="node"><title>&quot;582&quot;</title>
<text text-anchor="middle" x="658.5" y="-502.5" font-family="Times,serif" font-size="10.00">&quot;582&quot;</text>
</g>
<!-- http://khalidaloufi.sa/quran#5855&#45;&gt;&quot;582&quot; -->
<g id="edge2" class="edge"><title>http://khalidaloufi.sa/quran#5855&#45;&gt;&quot;582&quot;</title>
<path fill="none" stroke="blue" d="M138.929,-311.622C156.126,-338.591 209.017,-415.147 275,-449 390.584,-508.301 550.055,-509.941 620.967,-507.214"/>
<polygon fill="blue" stroke="blue" points="621.333,-510.701 631.17,-506.767 621.026,-503.708 621.333,-510.701"/>
<text text-anchor="middle" x="384" y="-506" font-family="Times,serif" font-size="10.00">quran:page</text>
</g>
<!-- &quot;78&quot; -->
<g id="node4" class="node"><title>&quot;78&quot;</title>
<text text-anchor="middle" x="658.5" y="-444.5" font-family="Times,serif" font-size="10.00">&quot;78&quot;</text>
</g>
<!-- http://khalidaloufi.sa/quran#5855&#45;&gt;&quot;78&quot; -->
<g id="edge3" class="edge"><title>http://khalidaloufi.sa/quran#5855&#45;&gt;&quot;78&quot;</title>
<path fill="none" stroke="blue" d="M145.488,-311.626C169.259,-329.42 223.267,-367.341 275,-386 396.59,-429.856 551.231,-442.244 620.742,-445.694"/>
<polygon fill="blue" stroke="blue" points="620.998,-449.21 631.149,-446.175 621.321,-442.217 620.998,-449.21"/>
<text text-anchor="middle" x="384" y="-436" font-family="Times,serif" font-size="10.00">quran:surahnumber</text>
</g>
<!-- &quot;29&quot; -->
<g id="node5" class="node"><title>&quot;29&quot;</title>
<text text-anchor="middle" x="658.5" y="-386.5" font-family="Times,serif" font-size="10.00">&quot;29&quot;</text>
</g>
<!-- http://khalidaloufi.sa/quran#5855&#45;&gt;&quot;29&quot; -->
<g id="edge4" class="edge"><title>http://khalidaloufi.sa/quran#5855&#45;&gt;&quot;29&quot;</title>
<path fill="none" stroke="blue" d="M167.207,-311.519C195.83,-319.221 237.837,-329.915 275,-337 401.226,-361.065 552.946,-378.253 621.159,-385.365"/>
<polygon fill="blue" stroke="blue" points="621.066,-388.874 631.373,-386.419 621.785,-381.911 621.066,-388.874"/>
<text text-anchor="middle" x="384" y="-373" font-family="Times,serif" font-size="10.00">quran:ayahnumber</text>
</g>
<!-- &quot;سُورَةُ النَّبَإِ&quot; -->
<g id="node6" class="node"><title>&quot;سُورَةُ النَّبَإِ&quot;</title>
<text text-anchor="middle" x="658.5" y="-328.5" font-family="Times,serif" font-size="10.00">&quot;سُورَةُ النَّبَإِ&quot;</text>
</g>
<!-- http://khalidaloufi.sa/quran#5855&#45;&gt;&quot;سُورَةُ النَّبَإِ&quot; -->
<g id="edge5" class="edge"><title>http://khalidaloufi.sa/quran#5855&#45;&gt;&quot;سُورَةُ النَّبَإِ&quot;</title>
<path fill="none" stroke="blue" d="M264.001,-309.243C359.102,-314.501 485.229,-321.475 568.759,-326.093"/>
<polygon fill="blue" stroke="blue" points="568.805,-329.601 578.983,-326.659 569.191,-322.612 568.805,-329.601"/>
<text text-anchor="middle" x="384" y="-324" font-family="Times,serif" font-size="10.00">quran:surahname</text>
</g>
<!-- &quot;سورة النبا&quot; -->
<g id="node7" class="node"><title>&quot;سورة النبا&quot;</title>
<text text-anchor="middle" x="658.5" y="-270.5" font-family="Times,serif" font-size="10.00">&quot;سورة النبا&quot;</text>
</g>
<!-- http://khalidaloufi.sa/quran#5855&#45;&gt;&quot;سورة النبا&quot; -->
<g id="edge6" class="edge"><title>http://khalidaloufi.sa/quran#5855&#45;&gt;&quot;سورة النبا&quot;</title>
<path fill="none" stroke="blue" d="M264.141,-294.605C267.8,-294.401 271.425,-294.199 275,-294 387.572,-287.739 518.787,-280.561 594.588,-276.426"/>
<polygon fill="blue" stroke="blue" points="595.113,-279.903 604.908,-275.864 594.732,-272.913 595.113,-279.903"/>
<text text-anchor="middle" x="384" y="-297" font-family="Times,serif" font-size="10.00">quran:surrahname_no_diacratic</text>
</g>
<!-- &quot;5855&quot; -->
<g id="node8" class="node"><title>&quot;5855&quot;</title>
<text text-anchor="middle" x="658.5" y="-212.5" font-family="Times,serif" font-size="10.00">&quot;5855&quot;</text>
</g>
<!-- http://khalidaloufi.sa/quran#5855&#45;&gt;&quot;5855&quot; -->
<g id="edge7" class="edge"><title>http://khalidaloufi.sa/quran#5855&#45;&gt;&quot;5855&quot;</title>
<path fill="none" stroke="blue" d="M164.884,-292.471C193.492,-284.215 236.741,-272.455 275,-265 398.487,-240.938 546.711,-225.266 616.871,-218.628"/>
<polygon fill="blue" stroke="blue" points="617.414,-222.092 627.045,-217.677 616.763,-215.123 617.414,-222.092"/>
<text text-anchor="middle" x="384" y="-268" font-family="Times,serif" font-size="10.00">quran:index</text>
</g>
<!-- &quot;30&quot; -->
<g id="node9" class="node"><title>&quot;30&quot;</title>
<text text-anchor="middle" x="658.5" y="-154.5" font-family="Times,serif" font-size="10.00">&quot;30&quot;</text>
</g>
<!-- http://khalidaloufi.sa/quran#5855&#45;&gt;&quot;30&quot; -->
<g id="edge8" class="edge"><title>http://khalidaloufi.sa/quran#5855&#45;&gt;&quot;30&quot;</title>
<path fill="none" stroke="blue" d="M145.069,-292.392C168.561,-274.237 222.724,-235.011 275,-216 396.376,-171.86 551.125,-160.742 620.703,-157.942"/>
<polygon fill="blue" stroke="blue" points="621.255,-161.424 631.12,-157.561 620.998,-154.429 621.255,-161.424"/>
<text text-anchor="middle" x="384" y="-219" font-family="Times,serif" font-size="10.00">quran:chapter</text>
</g>
<!-- &quot;وكل شيء احصينٰه كتٰبا&quot; -->
<g id="node10" class="node"><title>&quot;وكل شيء احصينٰه كتٰبا&quot;</title>
<text text-anchor="middle" x="658.5" y="-96.5" font-family="Times,serif" font-size="10.00">&quot;وكل شيء احصينٰه كتٰبا&quot;</text>
</g>
<!-- http://khalidaloufi.sa/quran#5855&#45;&gt;&quot;وكل شيء احصينٰه كتٰبا&quot; -->
<g id="edge9" class="edge"><title>http://khalidaloufi.sa/quran#5855&#45;&gt;&quot;وكل شيء احصينٰه كتٰبا&quot;</title>
<path fill="none" stroke="blue" d="M138.863,-292.156C155.884,-264.569 208.358,-186.292 275,-152 361.75,-107.361 473.476,-96.346 553.749,-95.1524"/>
<polygon fill="blue" stroke="blue" points="553.908,-98.6511 563.872,-95.0513 553.838,-91.6514 553.908,-98.6511"/>
<text text-anchor="middle" x="384" y="-155" font-family="Times,serif" font-size="10.00">quran:ayah_text_no_diacratic</text>
</g>
<!-- &quot;وَكُلَّ شَيۡءٍ أَحۡصَيۡنَٰهُ كِتَٰبٗا&quot; -->
<g id="node11" class="node"><title>&quot;وَكُلَّ شَيۡءٍ أَحۡصَيۡنَٰهُ كِتَٰبٗا&quot;</title>
<text text-anchor="middle" x="658.5" y="-38.5" font-family="Times,serif" font-size="10.00">&quot;وَكُلَّ شَيۡءٍ أَحۡصَيۡنَٰهُ كِتَٰبٗا&quot;</text>
</g>
<!-- http://khalidaloufi.sa/quran#5855&#45;&gt;&quot;وَكُلَّ شَيۡءٍ أَحۡصَيۡنَٰهُ كِتَٰبٗا&quot; -->
<g id="edge10" class="edge"><title>http://khalidaloufi.sa/quran#5855&#45;&gt;&quot;وَكُلَّ شَيۡءٍ أَحۡصَيۡنَٰهُ كِتَٰبٗا&quot;</title>
<path fill="none" stroke="blue" d="M135.88,-292.333C146.979,-256.968 190.627,-133.985 275,-82 339.488,-42.2662 421.911,-29.6916 493.721,-28.0103"/>
<polygon fill="blue" stroke="blue" points="493.839,-31.5089 503.78,-27.8437 493.723,-24.5099 493.839,-31.5089"/>
<text text-anchor="middle" x="384" y="-85" font-family="Times,serif" font-size="10.00">quran:ayah_text</text>
</g>
</g>
</svg>
