<?xml version="1.0" encoding="UTF-8" standalone="no"?>
<!DOCTYPE svg PUBLIC "-//W3C//DTD SVG 1.1//EN"
 "http://www.w3.org/Graphics/SVG/1.1/DTD/svg11.dtd">
<!-- Generated by graphviz version 2.38.0 (20140413.2041)
 -->
<!-- Title: d1e17 Pages: 1 -->
<svg width="716pt" height="590pt"
 viewBox="0.00 0.00 716.00 590.00" xmlns="http://www.w3.org/2000/svg" xmlns:xlink="http://www.w3.org/1999/xlink">
<g id="graph0" class="graph" transform="scale(1 1) rotate(0) translate(4 586)">
<title>d1e17</title>
<polygon fill="white" stroke="none" points="-4,4 -4,-586 712,-586 712,4 -4,4"/>
<text text-anchor="middle" x="354" y="-7.8" font-family="Times,serif" font-size="14.00">Powered by http://rhizomik.net</text>
<!-- http://khalidaloufi.sa/quran#5858 -->
<g id="node1" class="node"><title>http://khalidaloufi.sa/quran#5858</title>
<g id="a_node1"><a xlink:href="http://khalidaloufi.sa/quran#5858" xlink:title="http://khalidaloufi.sa/quran#5858">
<polygon fill="none" stroke="black" points="264,-311.5 0,-311.5 0,-292.5 264,-292.5 264,-311.5"/>
<text text-anchor="middle" x="132" y="-299.5" font-family="Times,serif" font-size="10.00" fill="blue">http://khalidaloufi.sa/quran#5858</text>
</a>
</g>
</g>
<!-- &quot;سُورَةُ النَّبَإِ&quot; -->
<g id="node2" class="node"><title>&quot;سُورَةُ النَّبَإِ&quot;</title>
<text text-anchor="middle" x="606" y="-560.5" font-family="Times,serif" font-size="10.00">&quot;سُورَةُ النَّبَإِ&quot;</text>
</g>
<!-- http://khalidaloufi.sa/quran#5858&#45;&gt;&quot;سُورَةُ النَّبَإِ&quot; -->
<g id="edge1" class="edge"><title>http://khalidaloufi.sa/quran#5858&#45;&gt;&quot;سُورَةُ النَّبَإِ&quot;</title>
<path fill="none" stroke="blue" d="M135.929,-311.569C147.197,-346.586 191.361,-468.438 275,-521 347.125,-566.326 445.685,-573.364 516.276,-571.188"/>
<polygon fill="blue" stroke="blue" points="516.621,-574.678 526.482,-570.804 516.357,-567.683 516.621,-574.678"/>
<text text-anchor="middle" x="384" y="-574" font-family="Times,serif" font-size="10.00">quran:surahname</text>
</g>
<!-- &quot;78&quot; -->
<g id="node3" class="node"><title>&quot;78&quot;</title>
<text text-anchor="middle" x="606" y="-502.5" font-family="Times,serif" font-size="10.00">&quot;78&quot;</text>
</g>
<!-- http://khalidaloufi.sa/quran#5858&#45;&gt;&quot;78&quot; -->
<g id="edge2" class="edge"><title>http://khalidaloufi.sa/quran#5858&#45;&gt;&quot;78&quot;</title>
<path fill="none" stroke="blue" d="M138.613,-311.526C155.353,-338.978 207.957,-418.553 275,-454 371.651,-505.102 504.99,-508.59 568.511,-506.884"/>
<polygon fill="blue" stroke="blue" points="568.934,-510.372 578.813,-506.543 568.703,-503.375 568.934,-510.372"/>
<text text-anchor="middle" x="384" y="-508" font-family="Times,serif" font-size="10.00">quran:surahnumber</text>
</g>
<!-- &quot;58&quot; -->
<g id="node4" class="node"><title>&quot;58&quot;</title>
<text text-anchor="middle" x="606" y="-444.5" font-family="Times,serif" font-size="10.00">&quot;58&quot;</text>
</g>
<!-- http://khalidaloufi.sa/quran#5858&#45;&gt;&quot;58&quot; -->
<g id="edge3" class="edge"><title>http://khalidaloufi.sa/quran#5858&#45;&gt;&quot;58&quot;</title>
<path fill="none" stroke="blue" d="M145.059,-311.755C168.535,-330.203 222.67,-370.129 275,-390 376.991,-428.729 506.765,-441.307 568.796,-445.262"/>
<polygon fill="blue" stroke="blue" points="568.671,-448.761 578.863,-445.866 569.09,-441.774 568.671,-448.761"/>
<text text-anchor="middle" x="384" y="-441" font-family="Times,serif" font-size="10.00">quran:hizb</text>
</g>
<!-- &quot;30&quot; -->
<g id="node5" class="node"><title>&quot;30&quot;</title>
<text text-anchor="middle" x="606" y="-386.5" font-family="Times,serif" font-size="10.00">&quot;30&quot;</text>
</g>
<!-- http://khalidaloufi.sa/quran#5858&#45;&gt;&quot;30&quot; -->
<g id="edge4" class="edge"><title>http://khalidaloufi.sa/quran#5858&#45;&gt;&quot;30&quot;</title>
<path fill="none" stroke="blue" d="M165.768,-311.58C194.403,-319.7 237.194,-331.233 275,-339 380.752,-360.727 507.366,-377.312 568.462,-384.732"/>
<polygon fill="blue" stroke="blue" points="568.394,-388.249 578.74,-385.968 569.23,-381.299 568.394,-388.249"/>
<text text-anchor="middle" x="384" y="-377" font-family="Times,serif" font-size="10.00">quran:chapter</text>
</g>
<!-- &quot;32&quot; -->
<g id="node6" class="node"><title>&quot;32&quot;</title>
<text text-anchor="middle" x="606" y="-328.5" font-family="Times,serif" font-size="10.00">&quot;32&quot;</text>
</g>
<!-- http://khalidaloufi.sa/quran#5858&#45;&gt;&quot;32&quot; -->
<g id="edge5" class="edge"><title>http://khalidaloufi.sa/quran#5858&#45;&gt;&quot;32&quot;</title>
<path fill="none" stroke="blue" d="M264.165,-310.059C367.53,-316.41 504.572,-324.83 568.834,-328.778"/>
<polygon fill="blue" stroke="blue" points="568.676,-332.275 578.872,-329.395 569.105,-325.288 568.676,-332.275"/>
<text text-anchor="middle" x="384" y="-326" font-family="Times,serif" font-size="10.00">quran:ayahnumber</text>
</g>
<!-- &quot;سورة النبا&quot; -->
<g id="node7" class="node"><title>&quot;سورة النبا&quot;</title>
<text text-anchor="middle" x="606" y="-270.5" font-family="Times,serif" font-size="10.00">&quot;سورة النبا&quot;</text>
</g>
<!-- http://khalidaloufi.sa/quran#5858&#45;&gt;&quot;سورة النبا&quot; -->
<g id="edge6" class="edge"><title>http://khalidaloufi.sa/quran#5858&#45;&gt;&quot;سورة النبا&quot;</title>
<path fill="none" stroke="blue" d="M264.165,-293.941C354.909,-288.366 471.607,-281.196 542.233,-276.856"/>
<polygon fill="blue" stroke="blue" points="542.544,-280.344 552.31,-276.237 542.114,-273.357 542.544,-280.344"/>
<text text-anchor="middle" x="384" y="-295" font-family="Times,serif" font-size="10.00">quran:surrahname_no_diacratic</text>
</g>
<!-- &quot;583&quot; -->
<g id="node8" class="node"><title>&quot;583&quot;</title>
<text text-anchor="middle" x="606" y="-212.5" font-family="Times,serif" font-size="10.00">&quot;583&quot;</text>
</g>
<!-- http://khalidaloufi.sa/quran#5858&#45;&gt;&quot;583&quot; -->
<g id="edge7" class="edge"><title>http://khalidaloufi.sa/quran#5858&#45;&gt;&quot;583&quot;</title>
<path fill="none" stroke="blue" d="M164.616,-292.428C193.23,-284.031 236.642,-271.953 275,-264 380.665,-242.091 507.319,-226.118 568.443,-219.046"/>
<polygon fill="blue" stroke="blue" points="569.189,-222.483 578.726,-217.869 568.393,-215.529 569.189,-222.483"/>
<text text-anchor="middle" x="384" y="-267" font-family="Times,serif" font-size="10.00">quran:page</text>
</g>
<!-- &quot;5858&quot; -->
<g id="node9" class="node"><title>&quot;5858&quot;</title>
<text text-anchor="middle" x="606" y="-154.5" font-family="Times,serif" font-size="10.00">&quot;5858&quot;</text>
</g>
<!-- http://khalidaloufi.sa/quran#5858&#45;&gt;&quot;5858&quot; -->
<g id="edge8" class="edge"><title>http://khalidaloufi.sa/quran#5858&#45;&gt;&quot;5858&quot;</title>
<path fill="none" stroke="blue" d="M144.671,-292.404C167.903,-273.844 222.254,-233.094 275,-213 374.794,-174.983 501.365,-162.69 564.845,-158.779"/>
<polygon fill="blue" stroke="blue" points="565.064,-162.272 574.845,-158.201 564.66,-155.284 565.064,-162.272"/>
<text text-anchor="middle" x="384" y="-216" font-family="Times,serif" font-size="10.00">quran:index</text>
</g>
<!-- &quot;حَدَآئِقَ وَأَعۡنَٰبٗا&quot; -->
<g id="node10" class="node"><title>&quot;حَدَآئِقَ وَأَعۡنَٰبٗا&quot;</title>
<text text-anchor="middle" x="606" y="-96.5" font-family="Times,serif" font-size="10.00">&quot;حَدَآئِقَ وَأَعۡنَٰبٗا&quot;</text>
</g>
<!-- http://khalidaloufi.sa/quran#5858&#45;&gt;&quot;حَدَآئِقَ وَأَعۡنَٰبٗا&quot; -->
<g id="edge9" class="edge"><title>http://khalidaloufi.sa/quran#5858&#45;&gt;&quot;حَدَآئِقَ وَأَعۡنَٰبٗا&quot;</title>
<path fill="none" stroke="blue" d="M138.591,-292.402C155.27,-264.743 207.727,-184.582 275,-149 342.113,-113.502 426.971,-101.243 493.83,-97.734"/>
<polygon fill="blue" stroke="blue" points="494.154,-101.223 503.98,-97.2607 493.828,-94.2304 494.154,-101.223"/>
<text text-anchor="middle" x="384" y="-152" font-family="Times,serif" font-size="10.00">quran:ayah_text</text>
</g>
<!-- &quot;حدائق واعنٰبا&quot; -->
<g id="node11" class="node"><title>&quot;حدائق واعنٰبا&quot;</title>
<text text-anchor="middle" x="606" y="-38.5" font-family="Times,serif" font-size="10.00">&quot;حدائق واعنٰبا&quot;</text>
</g>
<!-- http://khalidaloufi.sa/quran#5858&#45;&gt;&quot;حدائق واعنٰبا&quot; -->
<g id="edge10" class="edge"><title>http://khalidaloufi.sa/quran#5858&#45;&gt;&quot;حدائق واعنٰبا&quot;</title>
<path fill="none" stroke="blue" d="M135.89,-292.329C147.023,-256.942 190.774,-133.824 275,-81 352.355,-32.4855 460.145,-28.66 531.202,-32.8155"/>
<polygon fill="blue" stroke="blue" points="531.204,-36.323 541.411,-33.4821 531.66,-29.3379 531.204,-36.323"/>
<text text-anchor="middle" x="384" y="-84" font-family="Times,serif" font-size="10.00">quran:ayah_text_no_diacratic</text>
</g>
</g>
</svg>
