<?xml version="1.0" encoding="UTF-8" standalone="no"?>
<!DOCTYPE svg PUBLIC "-//W3C//DTD SVG 1.1//EN"
 "http://www.w3.org/Graphics/SVG/1.1/DTD/svg11.dtd">
<!-- Generated by graphviz version 2.38.0 (20140413.2041)
 -->
<!-- Title: d1e25 Pages: 1 -->
<svg width="731pt" height="91pt"
 viewBox="0.00 0.00 731.00 91.00" xmlns="http://www.w3.org/2000/svg" xmlns:xlink="http://www.w3.org/1999/xlink">
<g id="graph0" class="graph" transform="scale(1 1) rotate(0) translate(4 87)">
<title>d1e25</title>
<polygon fill="white" stroke="none" points="-4,4 -4,-87 727,-87 727,4 -4,4"/>
<text text-anchor="middle" x="361.5" y="-7.8" font-family="Times,serif" font-size="14.00">Powered by http://rhizomik.net</text>
<!-- http://www.w3.org/2001/XMLSchema#double -->
<g id="node1" class="node"><title>http://www.w3.org/2001/XMLSchema#double</title>
<g id="a_node1"><a xlink:href="http://www.w3.org/2001/XMLSchema#double" xlink:title="http://www.w3.org/2001/XMLSchema#double">
<polygon fill="none" stroke="black" points="723,-83 414,-83 414,-64 723,-64 723,-83"/>
<text text-anchor="middle" x="568.5" y="-71" font-family="Times,serif" font-size="10.00" fill="blue">http://www.w3.org/2001/XMLSchema#double</text>
</a>
</g>
</g>
<!-- http://khalidaloufi.sa/quran#ayahnumber -->
<g id="node2" class="node"><title>http://khalidaloufi.sa/quran#ayahnumber</title>
<g id="a_node2"><a xlink:href="http://khalidaloufi.sa/quran#ayahnumber" xlink:title="rdf:Property:\nhttp://khalidaloufi.sa/quran#ayahnumber">
<polygon fill="none" stroke="black" points="309,-67.5 2.84217e-14,-67.5 2.84217e-14,-37.5 309,-37.5 309,-67.5"/>
<text text-anchor="middle" x="154.5" y="-55.5" font-family="Times,serif" font-size="10.00" fill="blue">rdf:Property:</text>
<text text-anchor="middle" x="154.5" y="-44.5" font-family="Times,serif" font-size="10.00" fill="blue">http://khalidaloufi.sa/quran#ayahnumber</text>
</a>
</g>
</g>
<!-- http://khalidaloufi.sa/quran#ayahnumber&#45;&gt;http://www.w3.org/2001/XMLSchema#double -->
<g id="edge2" class="edge"><title>http://khalidaloufi.sa/quran#ayahnumber&#45;&gt;http://www.w3.org/2001/XMLSchema#double</title>
<path fill="none" stroke="blue" d="M309.206,-60.3346C340.054,-61.9069 372.578,-63.5646 403.752,-65.1536"/>
<polygon fill="blue" stroke="blue" points="403.657,-68.6532 413.822,-65.6669 404.014,-61.6623 403.657,-68.6532"/>
<text text-anchor="middle" x="361.5" y="-67.5" font-family="Times,serif" font-size="10.00">rdfs:range</text>
</g>
<!-- http://khalidaloufi.sa/quran#Ayah -->
<g id="node3" class="node"><title>http://khalidaloufi.sa/quran#Ayah</title>
<g id="a_node3"><a xlink:href="http://khalidaloufi.sa/quran#Ayah" xlink:title="http://khalidaloufi.sa/quran#Ayah">
<polygon fill="none" stroke="black" points="700.5,-42 436.5,-42 436.5,-23 700.5,-23 700.5,-42"/>
<text text-anchor="middle" x="568.5" y="-30" font-family="Times,serif" font-size="10.00" fill="blue">http://khalidaloufi.sa/quran#Ayah</text>
</a>
</g>
</g>
<!-- http://khalidaloufi.sa/quran#ayahnumber&#45;&gt;http://khalidaloufi.sa/quran#Ayah -->
<g id="edge1" class="edge"><title>http://khalidaloufi.sa/quran#ayahnumber&#45;&gt;http://khalidaloufi.sa/quran#Ayah</title>
<path fill="none" stroke="blue" d="M291.418,-37.4796C301.083,-36.7111 310.684,-36.0367 320,-35.5 354.361,-33.5204 391.448,-32.4858 426.191,-31.9987"/>
<polygon fill="blue" stroke="blue" points="426.452,-35.4958 436.407,-31.8701 426.363,-28.4964 426.452,-35.4958"/>
<text text-anchor="middle" x="361.5" y="-38.5" font-family="Times,serif" font-size="10.00">rdfs:domain</text>
</g>
</g>
</svg>
