<?xml version="1.0" encoding="UTF-8" standalone="no"?>
<!DOCTYPE svg PUBLIC "-//W3C//DTD SVG 1.1//EN"
 "http://www.w3.org/Graphics/SVG/1.1/DTD/svg11.dtd">
<!-- Generated by graphviz version 2.38.0 (20140413.2041)
 -->
<!-- Title: d1e25 Pages: 1 -->
<svg width="821pt" height="91pt"
 viewBox="0.00 0.00 821.00 91.00" xmlns="http://www.w3.org/2000/svg" xmlns:xlink="http://www.w3.org/1999/xlink">
<g id="graph0" class="graph" transform="scale(1 1) rotate(0) translate(4 87)">
<title>d1e25</title>
<polygon fill="white" stroke="none" points="-4,4 -4,-87 817,-87 817,4 -4,4"/>
<text text-anchor="middle" x="406.5" y="-7.8" font-family="Times,serif" font-size="14.00">Powered by http://rhizomik.net</text>
<!-- http://khalidaloufi.sa/quran#ayah_text_no_diacratic -->
<g id="node1" class="node"><title>http://khalidaloufi.sa/quran#ayah_text_no_diacratic</title>
<g id="a_node1"><a xlink:href="http://khalidaloufi.sa/quran#ayah_text_no_diacratic" xlink:title="rdf:Property:\nhttp://khalidaloufi.sa/quran#ayah_text_no_diacratic">
<polygon fill="none" stroke="black" points="399,-67.5 2.84217e-14,-67.5 2.84217e-14,-37.5 399,-37.5 399,-67.5"/>
<text text-anchor="middle" x="199.5" y="-55.5" font-family="Times,serif" font-size="10.00" fill="blue">rdf:Property:</text>
<text text-anchor="middle" x="199.5" y="-44.5" font-family="Times,serif" font-size="10.00" fill="blue">http://khalidaloufi.sa/quran#ayah_text_no_diacratic</text>
</a>
</g>
</g>
<!-- http://khalidaloufi.sa/quran#Ayah -->
<g id="node2" class="node"><title>http://khalidaloufi.sa/quran#Ayah</title>
<g id="a_node2"><a xlink:href="http://khalidaloufi.sa/quran#Ayah" xlink:title="http://khalidaloufi.sa/quran#Ayah">
<polygon fill="none" stroke="black" points="790.5,-83 526.5,-83 526.5,-64 790.5,-64 790.5,-83"/>
<text text-anchor="middle" x="658.5" y="-71" font-family="Times,serif" font-size="10.00" fill="blue">http://khalidaloufi.sa/quran#Ayah</text>
</a>
</g>
</g>
<!-- http://khalidaloufi.sa/quran#ayah_text_no_diacratic&#45;&gt;http://khalidaloufi.sa/quran#Ayah -->
<g id="edge1" class="edge"><title>http://khalidaloufi.sa/quran#ayah_text_no_diacratic&#45;&gt;http://khalidaloufi.sa/quran#Ayah</title>
<path fill="none" stroke="blue" d="M399.285,-61.6346C438.559,-63.4393 479.024,-65.2987 515.933,-66.9947"/>
<polygon fill="blue" stroke="blue" points="516.095,-70.5058 526.245,-67.4686 516.416,-63.5131 516.095,-70.5058"/>
<text text-anchor="middle" x="451.5" y="-67.5" font-family="Times,serif" font-size="10.00">rdfs:domain</text>
</g>
<!-- http://www.w3.org/2001/XMLSchema#string -->
<g id="node3" class="node"><title>http://www.w3.org/2001/XMLSchema#string</title>
<g id="a_node3"><a xlink:href="http://www.w3.org/2001/XMLSchema#string" xlink:title="http://www.w3.org/2001/XMLSchema#string">
<polygon fill="none" stroke="black" points="813,-42 504,-42 504,-23 813,-23 813,-42"/>
<text text-anchor="middle" x="658.5" y="-30" font-family="Times,serif" font-size="10.00" fill="blue">http://www.w3.org/2001/XMLSchema#string</text>
</a>
</g>
</g>
<!-- http://khalidaloufi.sa/quran#ayah_text_no_diacratic&#45;&gt;http://www.w3.org/2001/XMLSchema#string -->
<g id="edge2" class="edge"><title>http://khalidaloufi.sa/quran#ayah_text_no_diacratic&#45;&gt;http://www.w3.org/2001/XMLSchema#string</title>
<path fill="none" stroke="blue" d="M373.922,-37.4963C386.126,-36.7269 398.244,-36.0476 410,-35.5 437.048,-34.2402 465.776,-33.4188 493.717,-32.8963"/>
<polygon fill="blue" stroke="blue" points="494.034,-36.3914 503.971,-32.7171 493.912,-29.3924 494.034,-36.3914"/>
<text text-anchor="middle" x="451.5" y="-38.5" font-family="Times,serif" font-size="10.00">rdfs:range</text>
</g>
</g>
</svg>
