<?xml version="1.0" encoding="UTF-8" standalone="no"?>
<!DOCTYPE svg PUBLIC "-//W3C//DTD SVG 1.1//EN"
 "http://www.w3.org/Graphics/SVG/1.1/DTD/svg11.dtd">
<!-- Generated by graphviz version 2.38.0 (20140413.2041)
 -->
<!-- Title: d1e194 Pages: 1 -->
<svg width="874pt" height="729pt"
 viewBox="0.00 0.00 874.00 729.33" xmlns="http://www.w3.org/2000/svg" xmlns:xlink="http://www.w3.org/1999/xlink">
<g id="graph0" class="graph" transform="scale(1 1) rotate(0) translate(4 725.326)">
<title>d1e194</title>
<polygon fill="white" stroke="none" points="-4,4 -4,-725.326 870,-725.326 870,4 -4,4"/>
<text text-anchor="middle" x="433" y="-7.8" font-family="Times,serif" font-size="14.00">Powered by http://rhizomik.net</text>
<!-- http://khalidaloufi.sa/quran#Surah -->
<g id="node1" class="node"><title>http://khalidaloufi.sa/quran#Surah</title>
<g id="a_node1"><a xlink:href="http://khalidaloufi.sa/quran#Surah" xlink:title="rdfs:Class:\nhttp://khalidaloufi.sa/quran#Surah">
<polygon fill="none" stroke="black" points="821,-699.326 549,-699.326 549,-669.326 821,-669.326 821,-699.326"/>
<text text-anchor="middle" x="685" y="-687.326" font-family="Times,serif" font-size="10.00" fill="blue">rdfs:Class:</text>
<text text-anchor="middle" x="685" y="-676.326" font-family="Times,serif" font-size="10.00" fill="blue">http://khalidaloufi.sa/quran#Surah</text>
</a>
</g>
</g>
<!-- http://khalidaloufi.sa/quran#Ayah -->
<g id="node2" class="node"><title>http://khalidaloufi.sa/quran#Ayah</title>
<g id="a_node2"><a xlink:href="http://khalidaloufi.sa/quran#Ayah" xlink:title="rdfs:Class:\nhttp://khalidaloufi.sa/quran#Ayah">
<polygon fill="none" stroke="black" points="264,-383.326 0,-383.326 0,-353.326 264,-353.326 264,-383.326"/>
<text text-anchor="middle" x="132" y="-371.326" font-family="Times,serif" font-size="10.00" fill="blue">rdfs:Class:</text>
<text text-anchor="middle" x="132" y="-360.326" font-family="Times,serif" font-size="10.00" fill="blue">http://khalidaloufi.sa/quran#Ayah</text>
</a>
</g>
</g>
<!-- http://khalidaloufi.sa/quran#Ayah&#45;&gt;http://khalidaloufi.sa/quran#Surah -->
<g id="edge5" class="edge"><title>http://khalidaloufi.sa/quran#Ayah&#45;&gt;http://khalidaloufi.sa/quran#Surah</title>
<path fill="none" stroke="blue" d="M135.13,-383.388C143.002,-432.8 175.361,-590.611 275,-657.326 373.215,-723.087 516.159,-714.88 604.444,-701.005"/>
<polygon fill="blue" stroke="blue" points="605.097,-704.445 614.402,-699.38 603.969,-697.537 605.097,-704.445"/>
<text text-anchor="middle" x="384" y="-713.326" font-family="Times,serif" font-size="10.00">rdfs:subClassOf</text>
</g>
<!-- &quot;The index of the Ayah&quot; -->
<g id="node3" class="node"><title>&quot;The index of the Ayah&quot;</title>
<text text-anchor="middle" x="685" y="-626.826" font-family="Times,serif" font-size="10.00">&quot;The index of the Ayah&quot;</text>
</g>
<!-- http://khalidaloufi.sa/quran#Ayah&#45;&gt;&quot;The index of the Ayah&quot; -->
<g id="edge1" class="edge"><title>http://khalidaloufi.sa/quran#Ayah&#45;&gt;&quot;The index of the Ayah&quot;</title>
<path fill="none" stroke="blue" d="M137.808,-383.41C151.616,-423.992 195.583,-535.699 275,-584.326 366.859,-640.57 492.394,-646.171 580.07,-641.273"/>
<polygon fill="blue" stroke="blue" points="580.535,-644.752 590.302,-640.645 580.106,-637.765 580.535,-644.752"/>
<text text-anchor="middle" x="384" y="-644.326" font-family="Times,serif" font-size="10.00">quran:index</text>
</g>
<!-- &quot;The ayah_text_no_diacratic of the Ayah&quot; -->
<g id="node4" class="node"><title>&quot;The ayah_text_no_diacratic of the Ayah&quot;</title>
<text text-anchor="middle" x="685" y="-568.826" font-family="Times,serif" font-size="10.00">&quot;The ayah_text_no_diacratic of the Ayah&quot;</text>
</g>
<!-- http://khalidaloufi.sa/quran#Ayah&#45;&gt;&quot;The ayah_text_no_diacratic of the Ayah&quot; -->
<g id="edge2" class="edge"><title>http://khalidaloufi.sa/quran#Ayah&#45;&gt;&quot;The ayah_text_no_diacratic of the Ayah&quot;</title>
<path fill="none" stroke="blue" d="M142.936,-383.698C163.487,-414.061 213.891,-481.451 275,-512.326 348.845,-549.635 439.157,-565.303 516.115,-571.256"/>
<polygon fill="blue" stroke="blue" points="516.171,-574.77 526.397,-572.001 516.676,-567.788 516.171,-574.77"/>
<text text-anchor="middle" x="384" y="-571.326" font-family="Times,serif" font-size="10.00">quran:ayah_text_no_diacratic</text>
</g>
<!-- &quot;The page of the Ayah&quot; -->
<g id="node5" class="node"><title>&quot;The page of the Ayah&quot;</title>
<text text-anchor="middle" x="685" y="-510.826" font-family="Times,serif" font-size="10.00">&quot;The page of the Ayah&quot;</text>
</g>
<!-- http://khalidaloufi.sa/quran#Ayah&#45;&gt;&quot;The page of the Ayah&quot; -->
<g id="edge3" class="edge"><title>http://khalidaloufi.sa/quran#Ayah&#45;&gt;&quot;The page of the Ayah&quot;</title>
<path fill="none" stroke="blue" d="M153.951,-383.555C180.663,-402.174 228.926,-433.193 275,-449.326 376.686,-484.93 499.527,-500.782 583.879,-507.806"/>
<polygon fill="blue" stroke="blue" points="583.723,-511.304 593.972,-508.619 584.285,-504.327 583.723,-511.304"/>
<text text-anchor="middle" x="384" y="-499.326" font-family="Times,serif" font-size="10.00">quran:page</text>
</g>
<!-- &quot;The Hizb of teh Ayah&quot; -->
<g id="node6" class="node"><title>&quot;The Hizb of teh Ayah&quot;</title>
<text text-anchor="middle" x="685" y="-452.826" font-family="Times,serif" font-size="10.00">&quot;The Hizb of teh Ayah&quot;</text>
</g>
<!-- http://khalidaloufi.sa/quran#Ayah&#45;&gt;&quot;The Hizb of teh Ayah&quot; -->
<g id="edge4" class="edge"><title>http://khalidaloufi.sa/quran#Ayah&#45;&gt;&quot;The Hizb of teh Ayah&quot;</title>
<path fill="none" stroke="blue" d="M189.71,-383.363C215.585,-389.847 246.703,-397.12 275,-402.326 379.61,-421.571 500.537,-436.328 583.617,-445.325"/>
<polygon fill="blue" stroke="blue" points="583.495,-448.831 593.812,-446.42 584.243,-441.871 583.495,-448.831"/>
<text text-anchor="middle" x="384" y="-436.326" font-family="Times,serif" font-size="10.00">quran:hizb</text>
</g>
<!-- &quot;The surrahname of the Ayah&quot; -->
<g id="node7" class="node"><title>&quot;The surrahname of the Ayah&quot;</title>
<text text-anchor="middle" x="685" y="-394.826" font-family="Times,serif" font-size="10.00">&quot;The surrahname of the Ayah&quot;</text>
</g>
<!-- http://khalidaloufi.sa/quran#Ayah&#45;&gt;&quot;The surrahname of the Ayah&quot; -->
<g id="edge6" class="edge"><title>http://khalidaloufi.sa/quran#Ayah&#45;&gt;&quot;The surrahname of the Ayah&quot;</title>
<path fill="none" stroke="blue" d="M264.278,-375.235C354.388,-379.978 473.166,-386.229 561.362,-390.871"/>
<polygon fill="blue" stroke="blue" points="561.249,-394.37 571.42,-391.4 561.617,-387.38 561.249,-394.37"/>
<text text-anchor="middle" x="384" y="-389.326" font-family="Times,serif" font-size="10.00">quran:surrahname</text>
</g>
<!-- &quot;The sajdah of the Ayah&quot; -->
<g id="node8" class="node"><title>&quot;The sajdah of the Ayah&quot;</title>
<text text-anchor="middle" x="685" y="-336.826" font-family="Times,serif" font-size="10.00">&quot;The sajdah of the Ayah&quot;</text>
</g>
<!-- http://khalidaloufi.sa/quran#Ayah&#45;&gt;&quot;The sajdah of the Ayah&quot; -->
<g id="edge7" class="edge"><title>http://khalidaloufi.sa/quran#Ayah&#45;&gt;&quot;The sajdah of the Ayah&quot;</title>
<path fill="none" stroke="blue" d="M264.137,-359.945C267.797,-359.733 271.424,-359.526 275,-359.326 377.207,-353.588 493.836,-347.977 576.326,-344.166"/>
<polygon fill="blue" stroke="blue" points="576.637,-347.656 586.466,-343.699 576.315,-340.663 576.637,-347.656"/>
<text text-anchor="middle" x="384" y="-362.326" font-family="Times,serif" font-size="10.00">quran:sajdah</text>
</g>
<!-- &quot;The chapter of the Ayah&quot; -->
<g id="node9" class="node"><title>&quot;The chapter of the Ayah&quot;</title>
<text text-anchor="middle" x="685" y="-278.826" font-family="Times,serif" font-size="10.00">&quot;The chapter of the Ayah&quot;</text>
</g>
<!-- http://khalidaloufi.sa/quran#Ayah&#45;&gt;&quot;The chapter of the Ayah&quot; -->
<g id="edge8" class="edge"><title>http://khalidaloufi.sa/quran#Ayah&#45;&gt;&quot;The chapter of the Ayah&quot;</title>
<path fill="none" stroke="blue" d="M185.922,-353.243C212.484,-346.1 245.258,-337.928 275,-332.326 374.907,-313.508 489.894,-299.869 572.451,-291.457"/>
<polygon fill="blue" stroke="blue" points="573.011,-294.918 582.609,-290.431 572.308,-287.953 573.011,-294.918"/>
<text text-anchor="middle" x="384" y="-335.326" font-family="Times,serif" font-size="10.00">quran:chapter</text>
</g>
<!-- &quot;The surrahname of the Ayah without diacratic&quot; -->
<g id="node10" class="node"><title>&quot;The surrahname of the Ayah without diacratic&quot;</title>
<text text-anchor="middle" x="685" y="-220.826" font-family="Times,serif" font-size="10.00">&quot;The surrahname of the Ayah without diacratic&quot;</text>
</g>
<!-- http://khalidaloufi.sa/quran#Ayah&#45;&gt;&quot;The surrahname of the Ayah without diacratic&quot; -->
<g id="edge9" class="edge"><title>http://khalidaloufi.sa/quran#Ayah&#45;&gt;&quot;The surrahname of the Ayah without diacratic&quot;</title>
<path fill="none" stroke="blue" d="M152.918,-353.124C179.311,-333.813 228.032,-300.999 275,-284.326 344.24,-259.746 423.485,-245.07 493.67,-236.307"/>
<polygon fill="blue" stroke="blue" points="494.453,-239.738 503.957,-235.057 493.608,-232.789 494.453,-239.738"/>
<text text-anchor="middle" x="384" y="-287.326" font-family="Times,serif" font-size="10.00">quran:surrahname_no_diacratic</text>
</g>
<!-- &quot;The surahnumber of the Ayah&quot; -->
<g id="node11" class="node"><title>&quot;The surahnumber of the Ayah&quot;</title>
<text text-anchor="middle" x="685" y="-162.826" font-family="Times,serif" font-size="10.00">&quot;The surahnumber of the Ayah&quot;</text>
</g>
<!-- http://khalidaloufi.sa/quran#Ayah&#45;&gt;&quot;The surahnumber of the Ayah&quot; -->
<g id="edge10" class="edge"><title>http://khalidaloufi.sa/quran#Ayah&#45;&gt;&quot;The surahnumber of the Ayah&quot;</title>
<path fill="none" stroke="blue" d="M142.523,-353.07C162.688,-322.241 212.974,-252.785 275,-221.326 362.525,-176.933 473.438,-164.009 557.675,-161.59"/>
<polygon fill="blue" stroke="blue" points="557.9,-165.086 567.812,-161.346 557.731,-158.088 557.9,-165.086"/>
<text text-anchor="middle" x="384" y="-224.326" font-family="Times,serif" font-size="10.00">quran:surahnumber</text>
</g>
<!-- &quot;The ayah_text of the Ayah&quot; -->
<g id="node12" class="node"><title>&quot;The ayah_text of the Ayah&quot;</title>
<text text-anchor="middle" x="685" y="-104.826" font-family="Times,serif" font-size="10.00">&quot;The ayah_text of the Ayah&quot;</text>
</g>
<!-- http://khalidaloufi.sa/quran#Ayah&#45;&gt;&quot;The ayah_text of the Ayah&quot; -->
<g id="edge11" class="edge"><title>http://khalidaloufi.sa/quran#Ayah&#45;&gt;&quot;The ayah_text of the Ayah&quot;</title>
<path fill="none" stroke="blue" d="M137.624,-353.302C151.106,-312.342 194.595,-198.505 275,-149.326 361.689,-96.3026 478.447,-89.2638 565.021,-93.4626"/>
<polygon fill="blue" stroke="blue" points="564.984,-96.9656 575.159,-94.012 565.363,-89.9759 564.984,-96.9656"/>
<text text-anchor="middle" x="384" y="-152.326" font-family="Times,serif" font-size="10.00">quran:ayah_text</text>
</g>
<!-- &quot;The ayahnumber of the Ayah&quot; -->
<g id="node13" class="node"><title>&quot;The ayahnumber of the Ayah&quot;</title>
<text text-anchor="middle" x="685" y="-46.8257" font-family="Times,serif" font-size="10.00">&quot;The ayahnumber of the Ayah&quot;</text>
</g>
<!-- http://khalidaloufi.sa/quran#Ayah&#45;&gt;&quot;The ayahnumber of the Ayah&quot; -->
<g id="edge12" class="edge"><title>http://khalidaloufi.sa/quran#Ayah&#45;&gt;&quot;The ayahnumber of the Ayah&quot;</title>
<path fill="none" stroke="blue" d="M135.1,-353.173C142.878,-303.46 174.978,-144.671 275,-77.3257 365.813,-16.1804 495.159,-18.4063 583.944,-29.9241"/>
<polygon fill="blue" stroke="blue" points="583.644,-33.4153 594.024,-31.294 584.586,-26.4791 583.644,-33.4153"/>
<text text-anchor="middle" x="384" y="-80.3257" font-family="Times,serif" font-size="10.00">quran:ayahnumber</text>
</g>
</g>
</svg>
