<?xml version="1.0" encoding="UTF-8" standalone="no"?>
<!DOCTYPE svg PUBLIC "-//W3C//DTD SVG 1.1//EN"
 "http://www.w3.org/Graphics/SVG/1.1/DTD/svg11.dtd">
<!-- Generated by graphviz version 2.38.0 (20140413.2041)
 -->
<!-- Title: d1e3 Pages: 1 -->
<svg width="687pt" height="94pt"
 viewBox="0.00 0.00 687.00 94.00" xmlns="http://www.w3.org/2000/svg" xmlns:xlink="http://www.w3.org/1999/xlink">
<g id="graph0" class="graph" transform="scale(1 1) rotate(0) translate(4 90)">
<title>d1e3</title>
<polygon fill="white" stroke="none" points="-4,4 -4,-90 683,-90 683,4 -4,4"/>
<text text-anchor="middle" x="339.5" y="-7.8" font-family="Times,serif" font-size="14.00">Powered by http://rhizomik.net</text>
<!-- http://www.w3.org/2001/XMLSchema#double -->
<g id="node1" class="node"><title>http://www.w3.org/2001/XMLSchema#double</title>
<g id="a_node1"><a xlink:href="http://www.w3.org/2001/XMLSchema#double" xlink:title="http://www.w3.org/2001/XMLSchema#double">
<polygon fill="none" stroke="black" points="679,-47.5 370,-47.5 370,-28.5 679,-28.5 679,-47.5"/>
<text text-anchor="middle" x="524.5" y="-35.5" font-family="Times,serif" font-size="10.00" fill="blue">http://www.w3.org/2001/XMLSchema#double</text>
</a>
</g>
</g>
<!-- http://khalidaloufi.sa/quran#index -->
<g id="node2" class="node"><title>http://khalidaloufi.sa/quran#index</title>
<g id="a_node2"><a xlink:href="http://khalidaloufi.sa/quran#index" xlink:title="rdf:Property:\nhttp://khalidaloufi.sa/quran#index">
<polygon fill="none" stroke="black" points="272,-53 0,-53 0,-23 272,-23 272,-53"/>
<text text-anchor="middle" x="136" y="-41" font-family="Times,serif" font-size="10.00" fill="blue">rdf:Property:</text>
<text text-anchor="middle" x="136" y="-30" font-family="Times,serif" font-size="10.00" fill="blue">http://khalidaloufi.sa/quran#index</text>
</a>
</g>
</g>
<!-- http://khalidaloufi.sa/quran#index&#45;&gt;http://www.w3.org/2001/XMLSchema#double -->
<g id="edge2" class="edge"><title>http://khalidaloufi.sa/quran#index&#45;&gt;http://www.w3.org/2001/XMLSchema#double</title>
<path fill="none" stroke="blue" d="M272.179,-38C300.414,-38 330.473,-38 359.619,-38"/>
<polygon fill="blue" stroke="blue" points="359.886,-41.5001 369.886,-38 359.886,-34.5001 359.886,-41.5001"/>
<text text-anchor="middle" x="321" y="-41" font-family="Times,serif" font-size="10.00">rdfs:range</text>
</g>
<!-- http://khalidaloufi.sa/quran#index&#45;&gt;http://khalidaloufi.sa/quran#index -->
<g id="edge1" class="edge"><title>http://khalidaloufi.sa/quran#index&#45;&gt;http://khalidaloufi.sa/quran#index</title>
<path fill="none" stroke="blue" d="M105.214,-53.2025C95.1913,-64.1225 105.453,-75 136,-75 157.478,-75 168.928,-69.6223 170.349,-62.6334"/>
<polygon fill="blue" stroke="blue" points="173.594,-61.3199 166.786,-53.2025 167.046,-63.7942 173.594,-61.3199"/>
<text text-anchor="middle" x="136" y="-78" font-family="Times,serif" font-size="10.00">rdfs:domain</text>
</g>
</g>
</svg>
