<?xml version="1.0" encoding="UTF-8" standalone="no"?>
<!DOCTYPE svg PUBLIC "-//W3C//DTD SVG 1.1//EN"
 "http://www.w3.org/Graphics/SVG/1.1/DTD/svg11.dtd">
<!-- Generated by graphviz version 2.38.0 (20140413.2041)
 -->
<!-- Title: d1e25 Pages: 1 -->
<svg width="701pt" height="215pt"
 viewBox="0.00 0.00 701.00 214.85" xmlns="http://www.w3.org/2000/svg" xmlns:xlink="http://www.w3.org/1999/xlink">
<g id="graph0" class="graph" transform="scale(1 1) rotate(0) translate(4 210.852)">
<title>d1e25</title>
<polygon fill="white" stroke="none" points="-4,4 -4,-210.852 697,-210.852 697,4 -4,4"/>
<text text-anchor="middle" x="346.5" y="-7.8" font-family="Times,serif" font-size="14.00">Powered by http://rhizomik.net</text>
<!-- http://khalidaloufi.sa/quran#sajdah -->
<g id="node1" class="node"><title>http://khalidaloufi.sa/quran#sajdah</title>
<g id="a_node1"><a xlink:href="http://khalidaloufi.sa/quran#sajdah" xlink:title="rdf:Property:\nhttp://khalidaloufi.sa/quran#sajdah">
<polygon fill="none" stroke="black" points="279,-141.852 0,-141.852 0,-111.852 279,-111.852 279,-141.852"/>
<text text-anchor="middle" x="139.5" y="-129.852" font-family="Times,serif" font-size="10.00" fill="blue">rdf:Property:</text>
<text text-anchor="middle" x="139.5" y="-118.852" font-family="Times,serif" font-size="10.00" fill="blue">http://khalidaloufi.sa/quran#sajdah</text>
</a>
</g>
</g>
<!-- http://khalidaloufi.sa/quran#Ayah -->
<g id="node2" class="node"><title>http://khalidaloufi.sa/quran#Ayah</title>
<g id="a_node2"><a xlink:href="http://khalidaloufi.sa/quran#Ayah" xlink:title="http://khalidaloufi.sa/quran#Ayah">
<polygon fill="none" stroke="black" points="670.5,-73.3523 406.5,-73.3523 406.5,-54.3523 670.5,-54.3523 670.5,-73.3523"/>
<text text-anchor="middle" x="538.5" y="-61.3523" font-family="Times,serif" font-size="10.00" fill="blue">http://khalidaloufi.sa/quran#Ayah</text>
</a>
</g>
</g>
<!-- http://khalidaloufi.sa/quran#sajdah&#45;&gt;http://khalidaloufi.sa/quran#Ayah -->
<g id="edge1" class="edge"><title>http://khalidaloufi.sa/quran#sajdah&#45;&gt;http://khalidaloufi.sa/quran#Ayah</title>
<path fill="none" stroke="blue" d="M203.118,-111.843C228.139,-103.973 256.331,-92.6119 279,-76.8523 285.214,-72.532 283.134,-67.0368 290,-63.8523 353.952,-34.1914 437.586,-42.548 489.409,-52.3758"/>
<polygon fill="blue" stroke="blue" points="488.843,-55.8318 499.334,-54.3501 490.209,-48.9663 488.843,-55.8318"/>
<text text-anchor="middle" x="331.5" y="-66.8523" font-family="Times,serif" font-size="10.00">rdfs:domain</text>
</g>
<!-- http://www.w3.org/2001/XMLSchema#double -->
<g id="node3" class="node"><title>http://www.w3.org/2001/XMLSchema#double</title>
<g id="a_node3"><a xlink:href="http://www.w3.org/2001/XMLSchema#double" xlink:title="http://www.w3.org/2001/XMLSchema#double">
<polygon fill="none" stroke="black" points="693,-149.352 384,-149.352 384,-130.352 693,-130.352 693,-149.352"/>
<text text-anchor="middle" x="538.5" y="-137.352" font-family="Times,serif" font-size="10.00" fill="blue">http://www.w3.org/2001/XMLSchema#double</text>
</a>
</g>
</g>
<!-- http://khalidaloufi.sa/quran#sajdah&#45;&gt;http://www.w3.org/2001/XMLSchema#double -->
<g id="edge2" class="edge"><title>http://khalidaloufi.sa/quran#sajdah&#45;&gt;http://www.w3.org/2001/XMLSchema#double</title>
<path fill="none" stroke="blue" d="M279.073,-131.39C309.652,-132.391 342.325,-133.461 373.794,-134.492"/>
<polygon fill="blue" stroke="blue" points="373.856,-137.995 383.965,-134.825 374.085,-130.999 373.856,-137.995"/>
<text text-anchor="middle" x="331.5" y="-136.852" font-family="Times,serif" font-size="10.00">rdfs:range</text>
</g>
<!-- http://khalidaloufi.sa/quran#page -->
<g id="node4" class="node"><title>http://khalidaloufi.sa/quran#page</title>
<g id="a_node4"><a xlink:href="http://khalidaloufi.sa/quran#page" xlink:title="rdf:Property:\nhttp://khalidaloufi.sa/quran#page">
<polygon fill="none" stroke="black" points="271.5,-205.852 7.5,-205.852 7.5,-175.852 271.5,-175.852 271.5,-205.852"/>
<text text-anchor="middle" x="139.5" y="-193.852" font-family="Times,serif" font-size="10.00" fill="blue">rdf:Property:</text>
<text text-anchor="middle" x="139.5" y="-182.852" font-family="Times,serif" font-size="10.00" fill="blue">http://khalidaloufi.sa/quran#page</text>
</a>
</g>
</g>
<!-- http://khalidaloufi.sa/quran#page&#45;&gt;http://khalidaloufi.sa/quran#Ayah -->
<g id="edge3" class="edge"><title>http://khalidaloufi.sa/quran#page&#45;&gt;http://khalidaloufi.sa/quran#Ayah</title>
<path fill="none" stroke="blue" d="M271.777,-179.123C315.221,-172.865 356.657,-163.533 373,-149.852 383.89,-140.737 373.95,-129.886 384,-119.852 406.178,-97.7105 437.8,-84.2501 466.586,-76.1018"/>
<polygon fill="blue" stroke="blue" points="467.862,-79.3844 476.629,-73.4357 466.066,-72.6187 467.862,-79.3844"/>
<text text-anchor="middle" x="331.5" y="-177.852" font-family="Times,serif" font-size="10.00">rdfs:domain</text>
</g>
<!-- http://khalidaloufi.sa/quran#page&#45;&gt;http://www.w3.org/2001/XMLSchema#double -->
<g id="edge4" class="edge"><title>http://khalidaloufi.sa/quran#page&#45;&gt;http://www.w3.org/2001/XMLSchema#double</title>
<path fill="none" stroke="blue" d="M271.663,-196.933C304.871,-196.653 340.371,-194.773 373,-189.852 419.809,-182.793 471.755,-165.291 504.507,-152.994"/>
<polygon fill="blue" stroke="blue" points="505.933,-156.196 514.029,-149.362 503.438,-149.656 505.933,-156.196"/>
<text text-anchor="middle" x="331.5" y="-198.852" font-family="Times,serif" font-size="10.00">rdfs:range</text>
</g>
<!-- http://khalidaloufi.sa/quran#hizb -->
<g id="node5" class="node"><title>http://khalidaloufi.sa/quran#hizb</title>
<g id="a_node5"><a xlink:href="http://khalidaloufi.sa/quran#hizb" xlink:title="rdf:Property:\nhttp://khalidaloufi.sa/quran#hizb">
<polygon fill="none" stroke="black" points="271.5,-65.8523 7.5,-65.8523 7.5,-35.8523 271.5,-35.8523 271.5,-65.8523"/>
<text text-anchor="middle" x="139.5" y="-53.8523" font-family="Times,serif" font-size="10.00" fill="blue">rdf:Property:</text>
<text text-anchor="middle" x="139.5" y="-42.8523" font-family="Times,serif" font-size="10.00" fill="blue">http://khalidaloufi.sa/quran#hizb</text>
</a>
</g>
</g>
<!-- http://khalidaloufi.sa/quran#hizb&#45;&gt;http://khalidaloufi.sa/quran#Ayah -->
<g id="edge5" class="edge"><title>http://khalidaloufi.sa/quran#hizb&#45;&gt;http://khalidaloufi.sa/quran#Ayah</title>
<path fill="none" stroke="blue" d="M215.482,-35.8162C239.212,-31.7306 265.611,-27.8775 290,-25.8523 326.762,-22.7997 336.349,-21.674 373,-25.8523 415.623,-30.7114 463.278,-42.4351 496.28,-51.586"/>
<polygon fill="blue" stroke="blue" points="495.455,-54.9897 506.029,-54.3328 497.353,-48.252 495.455,-54.9897"/>
<text text-anchor="middle" x="331.5" y="-28.8523" font-family="Times,serif" font-size="10.00">rdfs:domain</text>
</g>
<!-- http://khalidaloufi.sa/quran#hizb&#45;&gt;http://www.w3.org/2001/XMLSchema#double -->
<g id="edge6" class="edge"><title>http://khalidaloufi.sa/quran#hizb&#45;&gt;http://www.w3.org/2001/XMLSchema#double</title>
<path fill="none" stroke="blue" d="M207.846,-65.9499C286.072,-83.4868 413.487,-112.051 484.833,-128.045"/>
<polygon fill="blue" stroke="blue" points="484.417,-131.539 494.94,-130.311 485.948,-124.708 484.417,-131.539"/>
<text text-anchor="middle" x="331.5" y="-102.852" font-family="Times,serif" font-size="10.00">rdfs:range</text>
</g>
</g>
</svg>
