<?xml version="1.0" encoding="UTF-8" standalone="no"?>
<!DOCTYPE svg PUBLIC "-//W3C//DTD SVG 1.1//EN"
 "http://www.w3.org/Graphics/SVG/1.1/DTD/svg11.dtd">
<!-- Generated by graphviz version 2.38.0 (20140413.2041)
 -->
<!-- Title: d1e17 Pages: 1 -->
<svg width="664pt" height="409pt"
 viewBox="0.00 0.00 664.00 408.79" xmlns="http://www.w3.org/2000/svg" xmlns:xlink="http://www.w3.org/1999/xlink">
<g id="graph0" class="graph" transform="scale(1 1) rotate(0) translate(4 404.788)">
<title>d1e17</title>
<polygon fill="white" stroke="none" points="-4,4 -4,-404.788 660,-404.788 660,4 -4,4"/>
<text text-anchor="middle" x="328" y="-7.8" font-family="Times,serif" font-size="14.00">Powered by http://rhizomik.net</text>
<!-- http://khalidaloufi.sa/quran#1 -->
<g id="node1" class="node"><title>http://khalidaloufi.sa/quran#1</title>
<g id="a_node1"><a xlink:href="http://khalidaloufi.sa/quran#1" xlink:title="http://khalidaloufi.sa/quran#1">
<polygon fill="none" stroke="black" points="242,-227.288 1.42109e-14,-227.288 1.42109e-14,-208.288 242,-208.288 242,-227.288"/>
<text text-anchor="middle" x="121" y="-215.288" font-family="Times,serif" font-size="10.00" fill="blue">http://khalidaloufi.sa/quran#1</text>
</a>
</g>
</g>
<!-- &quot;0&quot; -->
<g id="node2" class="node"><title>&quot;0&quot;</title>
<text text-anchor="middle" x="569" y="-367.288" font-family="Times,serif" font-size="10.00">&quot;0&quot;</text>
</g>
<!-- http://khalidaloufi.sa/quran#1&#45;&gt;&quot;0&quot; -->
<g id="edge1" class="edge"><title>http://khalidaloufi.sa/quran#1&#45;&gt;&quot;0&quot;</title>
<path fill="none" stroke="blue" d="M127.106,-227.673C142.012,-255.31 188.525,-333.285 253,-362.788 346.101,-405.39 471.45,-389.438 532.123,-377.781"/>
<polygon fill="blue" stroke="blue" points="532.864,-381.202 541.985,-375.813 531.494,-374.338 532.864,-381.202"/>
<text text-anchor="middle" x="362" y="-392.788" font-family="Times,serif" font-size="10.00">quran:hizb</text>
</g>
<!-- http://khalidaloufi.sa/quran#1&#45;&gt;&quot;0&quot; -->
<g id="edge2" class="edge"><title>http://khalidaloufi.sa/quran#1&#45;&gt;&quot;0&quot;</title>
<path fill="none" stroke="blue" d="M131.116,-227.357C151.065,-247.637 200.983,-294.876 253,-316.788 343.307,-354.831 374.535,-332.555 471,-349.788 491.186,-353.395 513.616,-357.981 531.817,-361.852"/>
<polygon fill="blue" stroke="blue" points="531.213,-365.302 541.724,-363.977 532.681,-358.458 531.213,-365.302"/>
<text text-anchor="middle" x="362" y="-352.788" font-family="Times,serif" font-size="10.00">quran:ayahnumber</text>
</g>
<!-- &quot;1&quot; -->
<g id="node3" class="node"><title>&quot;1&quot;</title>
<text text-anchor="middle" x="569" y="-253.288" font-family="Times,serif" font-size="10.00">&quot;1&quot;</text>
</g>
<!-- http://khalidaloufi.sa/quran#1&#45;&gt;&quot;1&quot; -->
<g id="edge3" class="edge"><title>http://khalidaloufi.sa/quran#1&#45;&gt;&quot;1&quot;</title>
<path fill="none" stroke="blue" d="M134.888,-227.352C157.428,-243.414 206.087,-275.189 253,-286.788 347.056,-310.045 375.268,-301.714 471,-286.788 491.782,-283.548 514.197,-276.625 532.239,-270.141"/>
<polygon fill="blue" stroke="blue" points="533.612,-273.365 541.774,-266.61 531.181,-266.8 533.612,-273.365"/>
<text text-anchor="middle" x="362" y="-303.788" font-family="Times,serif" font-size="10.00">quran:surahnumber</text>
</g>
<!-- http://khalidaloufi.sa/quran#1&#45;&gt;&quot;1&quot; -->
<g id="edge4" class="edge"><title>http://khalidaloufi.sa/quran#1&#45;&gt;&quot;1&quot;</title>
<path fill="none" stroke="blue" d="M153.954,-227.341C180.267,-234.722 218.691,-244.397 253,-248.788 353.115,-261.602 472.554,-259.581 531.451,-257.453"/>
<polygon fill="blue" stroke="blue" points="531.868,-260.94 541.726,-257.058 531.599,-253.945 531.868,-260.94"/>
<text text-anchor="middle" x="362" y="-261.788" font-family="Times,serif" font-size="10.00">quran:page</text>
</g>
<!-- http://khalidaloufi.sa/quran#1&#45;&gt;&quot;1&quot; -->
<g id="edge7" class="edge"><title>http://khalidaloufi.sa/quran#1&#45;&gt;&quot;1&quot;</title>
<path fill="none" stroke="blue" d="M242.332,-219.496C309.785,-221.579 395.325,-226.092 471,-235.788 491.34,-238.394 513.779,-242.913 531.949,-246.996"/>
<polygon fill="blue" stroke="blue" points="531.303,-250.439 541.833,-249.268 532.871,-243.617 531.303,-250.439"/>
<text text-anchor="middle" x="362" y="-238.788" font-family="Times,serif" font-size="10.00">quran:chapter</text>
</g>
<!-- http://khalidaloufi.sa/quran#1&#45;&gt;&quot;1&quot; -->
<g id="edge9" class="edge"><title>http://khalidaloufi.sa/quran#1&#45;&gt;&quot;1&quot;</title>
<path fill="none" stroke="blue" d="M165.518,-208.27C232.362,-195.374 363.814,-176.87 471,-203.788 493.251,-209.376 515.968,-221.162 533.819,-232.102"/>
<polygon fill="blue" stroke="blue" points="532.36,-235.32 542.682,-237.708 536.102,-229.404 532.36,-235.32"/>
<text text-anchor="middle" x="362" y="-206.788" font-family="Times,serif" font-size="10.00">quran:index</text>
</g>
<!-- &quot;سورة الفاتحة&quot; -->
<g id="node4" class="node"><title>&quot;سورة الفاتحة&quot;</title>
<text text-anchor="middle" x="569" y="-134.288" font-family="Times,serif" font-size="10.00">&quot;سورة الفاتحة&quot;</text>
</g>
<!-- http://khalidaloufi.sa/quran#1&#45;&gt;&quot;سورة الفاتحة&quot; -->
<g id="edge5" class="edge"><title>http://khalidaloufi.sa/quran#1&#45;&gt;&quot;سورة الفاتحة&quot;</title>
<path fill="none" stroke="blue" d="M145.72,-208.159C171.642,-198.031 214.606,-182.393 253,-173.788 336.006,-155.185 433.542,-145.56 497.843,-140.852"/>
<polygon fill="blue" stroke="blue" points="498.144,-144.34 507.871,-140.138 497.647,-137.357 498.144,-144.34"/>
<text text-anchor="middle" x="362" y="-176.788" font-family="Times,serif" font-size="10.00">quran:ayah_text_no_diacratic</text>
</g>
<!-- http://khalidaloufi.sa/quran#1&#45;&gt;&quot;سورة الفاتحة&quot; -->
<g id="edge6" class="edge"><title>http://khalidaloufi.sa/quran#1&#45;&gt;&quot;سورة الفاتحة&quot;</title>
<path fill="none" stroke="blue" d="M131.372,-208.114C151.429,-188.193 200.941,-143.096 253,-126.788 334.034,-101.405 432.586,-110.474 497.635,-121.551"/>
<polygon fill="blue" stroke="blue" points="497.323,-125.05 507.779,-123.341 498.54,-118.156 497.323,-125.05"/>
<text text-anchor="middle" x="362" y="-129.788" font-family="Times,serif" font-size="10.00">quran:surrahname_no_diacratic</text>
</g>
<!-- &quot;سُورَةُ الفَاتِحَةِ&quot; -->
<g id="node5" class="node"><title>&quot;سُورَةُ الفَاتِحَةِ&quot;</title>
<text text-anchor="middle" x="569" y="-67.2883" font-family="Times,serif" font-size="10.00">&quot;سُورَةُ الفَاتِحَةِ&quot;</text>
</g>
<!-- http://khalidaloufi.sa/quran#1&#45;&gt;&quot;سُورَةُ الفَاتِحَةِ&quot; -->
<g id="edge8" class="edge"><title>http://khalidaloufi.sa/quran#1&#45;&gt;&quot;سُورَةُ الفَاتِحَةِ&quot;</title>
<path fill="none" stroke="blue" d="M128.537,-208.081C145.609,-183.663 194.303,-119.79 253,-93.7883 321.663,-63.3724 406.99,-58.6272 471.512,-60.7936"/>
<polygon fill="blue" stroke="blue" points="471.552,-64.2978 481.683,-61.1977 471.83,-57.3033 471.552,-64.2978"/>
<text text-anchor="middle" x="362" y="-96.7883" font-family="Times,serif" font-size="10.00">quran:surahname</text>
</g>
<!-- http://khalidaloufi.sa/quran#1&#45;&gt;&quot;سُورَةُ الفَاتِحَةِ&quot; -->
<g id="edge10" class="edge"><title>http://khalidaloufi.sa/quran#1&#45;&gt;&quot;سُورَةُ الفَاتِحَةِ&quot;</title>
<path fill="none" stroke="blue" d="M125.782,-207.864C138.245,-176.782 181.358,-81.2787 253,-45.7883 335.391,-4.97339 444.958,-27.9067 510.775,-48.5992"/>
<polygon fill="blue" stroke="blue" points="509.964,-52.0152 520.556,-51.7592 512.116,-45.3542 509.964,-52.0152"/>
<text text-anchor="middle" x="362" y="-48.7883" font-family="Times,serif" font-size="10.00">quran:ayah_text</text>
</g>
</g>
</svg>
