<?xml version="1.0" encoding="UTF-8" standalone="no"?>
<!DOCTYPE svg PUBLIC "-//W3C//DTD SVG 1.1//EN"
 "http://www.w3.org/Graphics/SVG/1.1/DTD/svg11.dtd">
<!-- Generated by graphviz version 2.38.0 (20140413.2041)
 -->
<!-- Title: d1e25 Pages: 1 -->
<svg width="882pt" height="225pt"
 viewBox="0.00 0.00 882.00 224.50" xmlns="http://www.w3.org/2000/svg" xmlns:xlink="http://www.w3.org/1999/xlink">
<g id="graph0" class="graph" transform="scale(1 1) rotate(0) translate(4 220.5)">
<title>d1e25</title>
<polygon fill="white" stroke="none" points="-4,4 -4,-220.5 878,-220.5 878,4 -4,4"/>
<text text-anchor="middle" x="437" y="-7.8" font-family="Times,serif" font-size="14.00">Powered by http://rhizomik.net</text>
<!-- http://khalidaloufi.sa/quran#Surah -->
<g id="node1" class="node"><title>http://khalidaloufi.sa/quran#Surah</title>
<g id="a_node1"><a xlink:href="http://khalidaloufi.sa/quran#Surah" xlink:title="rdfs:Class:\nhttp://khalidaloufi.sa/quran#Surah">
<polygon fill="none" stroke="black" points="272,-143 0,-143 0,-113 272,-113 272,-143"/>
<text text-anchor="middle" x="136" y="-131" font-family="Times,serif" font-size="10.00" fill="blue">rdfs:Class:</text>
<text text-anchor="middle" x="136" y="-120" font-family="Times,serif" font-size="10.00" fill="blue">http://khalidaloufi.sa/quran#Surah</text>
</a>
</g>
</g>
<!-- http://khalidaloufi.sa/quran#Quran -->
<g id="node2" class="node"><title>http://khalidaloufi.sa/quran#Quran</title>
<g id="a_node2"><a xlink:href="http://khalidaloufi.sa/quran#Quran" xlink:title="http://khalidaloufi.sa/quran#Quran">
<polygon fill="none" stroke="black" points="829,-216.5 557,-216.5 557,-197.5 829,-197.5 829,-216.5"/>
<text text-anchor="middle" x="693" y="-204.5" font-family="Times,serif" font-size="10.00" fill="blue">http://khalidaloufi.sa/quran#Quran</text>
</a>
</g>
</g>
<!-- http://khalidaloufi.sa/quran#Surah&#45;&gt;http://khalidaloufi.sa/quran#Quran -->
<g id="edge1" class="edge"><title>http://khalidaloufi.sa/quran#Surah&#45;&gt;http://khalidaloufi.sa/quran#Quran</title>
<path fill="none" stroke="blue" d="M192.462,-143.066C219.588,-149.98 252.821,-157.781 283,-163 372.756,-178.521 474.6,-189.498 554.206,-196.606"/>
<polygon fill="blue" stroke="blue" points="554.027,-200.104 564.296,-197.497 554.642,-193.131 554.027,-200.104"/>
<text text-anchor="middle" x="392" y="-193" font-family="Times,serif" font-size="10.00">rdfs:subClassOf</text>
</g>
<!-- &quot;The surahnumber of the Surah&quot; -->
<g id="node3" class="node"><title>&quot;The surahnumber of the Surah&quot;</title>
<text text-anchor="middle" x="693" y="-154.5" font-family="Times,serif" font-size="10.00">&quot;The surahnumber of the Surah&quot;</text>
</g>
<!-- http://khalidaloufi.sa/quran#Surah&#45;&gt;&quot;The surahnumber of the Surah&quot; -->
<g id="edge2" class="edge"><title>http://khalidaloufi.sa/quran#Surah&#45;&gt;&quot;The surahnumber of the Surah&quot;</title>
<path fill="none" stroke="blue" d="M272.059,-135.057C360.176,-139.661 474.583,-145.639 561.726,-150.193"/>
<polygon fill="blue" stroke="blue" points="561.776,-153.7 571.945,-150.727 562.141,-146.71 561.776,-153.7"/>
<text text-anchor="middle" x="392" y="-150" font-family="Times,serif" font-size="10.00">quran:surahnumber</text>
</g>
<!-- &quot;The surrahname of the Ayah without diacratic&quot; -->
<g id="node4" class="node"><title>&quot;The surrahname of the Ayah without diacratic&quot;</title>
<text text-anchor="middle" x="693" y="-96.5" font-family="Times,serif" font-size="10.00">&quot;The surrahname of the Ayah without diacratic&quot;</text>
</g>
<!-- http://khalidaloufi.sa/quran#Surah&#45;&gt;&quot;The surrahname of the Ayah without diacratic&quot; -->
<g id="edge3" class="edge"><title>http://khalidaloufi.sa/quran#Surah&#45;&gt;&quot;The surrahname of the Ayah without diacratic&quot;</title>
<path fill="none" stroke="blue" d="M272.224,-120.574C275.854,-120.38 279.451,-120.188 283,-120 354.394,-116.211 432.805,-112.159 501.705,-108.634"/>
<polygon fill="blue" stroke="blue" points="501.992,-112.124 511.8,-108.118 501.634,-105.134 501.992,-112.124"/>
<text text-anchor="middle" x="392" y="-123" font-family="Times,serif" font-size="10.00">quran:surrahname_no_diacratic</text>
</g>
<!-- &quot;The surrahname of the Ayah&quot; -->
<g id="node5" class="node"><title>&quot;The surrahname of the Ayah&quot;</title>
<text text-anchor="middle" x="693" y="-38.5" font-family="Times,serif" font-size="10.00">&quot;The surrahname of the Ayah&quot;</text>
</g>
<!-- http://khalidaloufi.sa/quran#Surah&#45;&gt;&quot;The surrahname of the Ayah&quot; -->
<g id="edge4" class="edge"><title>http://khalidaloufi.sa/quran#Surah&#45;&gt;&quot;The surrahname of the Ayah&quot;</title>
<path fill="none" stroke="blue" d="M193.55,-112.926C220.492,-106.135 253.257,-98.4391 283,-93 378.376,-75.5584 487.33,-62.0157 568.79,-53.1291"/>
<polygon fill="blue" stroke="blue" points="569.523,-56.5703 579.088,-52.0145 568.769,-49.611 569.523,-56.5703"/>
<text text-anchor="middle" x="392" y="-96" font-family="Times,serif" font-size="10.00">quran:surrahname</text>
</g>
</g>
</svg>
