<?xml version="1.0" encoding="UTF-8" standalone="no"?>
<!DOCTYPE svg PUBLIC "-//W3C//DTD SVG 1.1//EN"
 "http://www.w3.org/Graphics/SVG/1.1/DTD/svg11.dtd">
<!-- Generated by graphviz version 2.38.0 (20140413.2041)
 -->
<!-- Title: d1e25 Pages: 1 -->
<svg width="739pt" height="132pt"
 viewBox="0.00 0.00 739.00 132.00" xmlns="http://www.w3.org/2000/svg" xmlns:xlink="http://www.w3.org/1999/xlink">
<g id="graph0" class="graph" transform="scale(1 1) rotate(0) translate(4 128)">
<title>d1e25</title>
<polygon fill="white" stroke="none" points="-4,4 -4,-128 735,-128 735,4 -4,4"/>
<text text-anchor="middle" x="365.5" y="-7.8" font-family="Times,serif" font-size="14.00">Powered by http://rhizomik.net</text>
<!-- http://www.w3.org/2001/XMLSchema#double -->
<g id="node1" class="node"><title>http://www.w3.org/2001/XMLSchema#double</title>
<g id="a_node1"><a xlink:href="http://www.w3.org/2001/XMLSchema#double" xlink:title="http://www.w3.org/2001/XMLSchema#double">
<polygon fill="none" stroke="black" points="731,-124 422,-124 422,-105 731,-105 731,-124"/>
<text text-anchor="middle" x="576.5" y="-112" font-family="Times,serif" font-size="10.00" fill="blue">http://www.w3.org/2001/XMLSchema#double</text>
</a>
</g>
</g>
<!-- http://khalidaloufi.sa/quran#Surah -->
<g id="node2" class="node"><title>http://khalidaloufi.sa/quran#Surah</title>
<g id="a_node2"><a xlink:href="http://khalidaloufi.sa/quran#Surah" xlink:title="http://khalidaloufi.sa/quran#Surah">
<polygon fill="none" stroke="black" points="712.5,-83 440.5,-83 440.5,-64 712.5,-64 712.5,-83"/>
<text text-anchor="middle" x="576.5" y="-71" font-family="Times,serif" font-size="10.00" fill="blue">http://khalidaloufi.sa/quran#Surah</text>
</a>
</g>
</g>
<!-- http://khalidaloufi.sa/quran#surahnumber -->
<g id="node3" class="node"><title>http://khalidaloufi.sa/quran#surahnumber</title>
<g id="a_node3"><a xlink:href="http://khalidaloufi.sa/quran#surahnumber" xlink:title="rdf:Property:\nhttp://khalidaloufi.sa/quran#surahnumber">
<polygon fill="none" stroke="black" points="317,-88.5 0,-88.5 0,-58.5 317,-58.5 317,-88.5"/>
<text text-anchor="middle" x="158.5" y="-76.5" font-family="Times,serif" font-size="10.00" fill="blue">rdf:Property:</text>
<text text-anchor="middle" x="158.5" y="-65.5" font-family="Times,serif" font-size="10.00" fill="blue">http://khalidaloufi.sa/quran#surahnumber</text>
</a>
</g>
</g>
<!-- http://khalidaloufi.sa/quran#surahnumber&#45;&gt;http://www.w3.org/2001/XMLSchema#double -->
<g id="edge2" class="edge"><title>http://khalidaloufi.sa/quran#surahnumber&#45;&gt;http://www.w3.org/2001/XMLSchema#double</title>
<path fill="none" stroke="blue" d="M311.746,-88.505C363.944,-93.6495 421.2,-99.2925 468.988,-104.002"/>
<polygon fill="blue" stroke="blue" points="468.741,-107.495 479.037,-104.993 469.428,-100.529 468.741,-107.495"/>
<text text-anchor="middle" x="369.5" y="-100.5" font-family="Times,serif" font-size="10.00">rdfs:range</text>
</g>
<!-- http://khalidaloufi.sa/quran#surahnumber&#45;&gt;http://khalidaloufi.sa/quran#Surah -->
<g id="edge3" class="edge"><title>http://khalidaloufi.sa/quran#surahnumber&#45;&gt;http://khalidaloufi.sa/quran#Surah</title>
<path fill="none" stroke="blue" d="M317.068,-73.5C354.17,-73.5 393.549,-73.5 430.087,-73.5"/>
<polygon fill="blue" stroke="blue" points="430.313,-77.0001 440.313,-73.5 430.313,-70.0001 430.313,-77.0001"/>
<text text-anchor="middle" x="369.5" y="-76.5" font-family="Times,serif" font-size="10.00">rdfs:domain</text>
</g>
<!-- http://khalidaloufi.sa/quran#Ayah -->
<g id="node4" class="node"><title>http://khalidaloufi.sa/quran#Ayah</title>
<g id="a_node4"><a xlink:href="http://khalidaloufi.sa/quran#Ayah" xlink:title="http://khalidaloufi.sa/quran#Ayah">
<polygon fill="none" stroke="black" points="708.5,-42 444.5,-42 444.5,-23 708.5,-23 708.5,-42"/>
<text text-anchor="middle" x="576.5" y="-30" font-family="Times,serif" font-size="10.00" fill="blue">http://khalidaloufi.sa/quran#Ayah</text>
</a>
</g>
</g>
<!-- http://khalidaloufi.sa/quran#surahnumber&#45;&gt;http://khalidaloufi.sa/quran#Ayah -->
<g id="edge1" class="edge"><title>http://khalidaloufi.sa/quran#surahnumber&#45;&gt;http://khalidaloufi.sa/quran#Ayah</title>
<path fill="none" stroke="blue" d="M311.746,-58.495C363.944,-53.3505 421.2,-47.7075 468.988,-42.9976"/>
<polygon fill="blue" stroke="blue" points="469.428,-46.4712 479.037,-42.0072 468.741,-39.505 469.428,-46.4712"/>
<text text-anchor="middle" x="369.5" y="-59.5" font-family="Times,serif" font-size="10.00">rdfs:domain</text>
</g>
</g>
</svg>
