<?xml version="1.0" encoding="UTF-8" standalone="no"?>
<!DOCTYPE svg PUBLIC "-//W3C//DTD SVG 1.1//EN"
 "http://www.w3.org/Graphics/SVG/1.1/DTD/svg11.dtd">
<!-- Generated by graphviz version 2.38.0 (20140413.2041)
 -->
<!-- Title: d1e25 Pages: 1 -->
<svg width="829pt" height="208pt"
 viewBox="0.00 0.00 829.00 207.92" xmlns="http://www.w3.org/2000/svg" xmlns:xlink="http://www.w3.org/1999/xlink">
<g id="graph0" class="graph" transform="scale(1 1) rotate(0) translate(4 203.916)">
<title>d1e25</title>
<polygon fill="white" stroke="none" points="-4,4 -4,-203.916 825,-203.916 825,4 -4,4"/>
<text text-anchor="middle" x="410.5" y="-7.8" font-family="Times,serif" font-size="14.00">Powered by http://rhizomik.net</text>
<!-- http://khalidaloufi.sa/quran#Surah -->
<g id="node1" class="node"><title>http://khalidaloufi.sa/quran#Surah</title>
<g id="a_node1"><a xlink:href="http://khalidaloufi.sa/quran#Surah" xlink:title="http://khalidaloufi.sa/quran#Surah">
<polygon fill="none" stroke="black" points="802.5,-129.416 530.5,-129.416 530.5,-110.416 802.5,-110.416 802.5,-129.416"/>
<text text-anchor="middle" x="666.5" y="-117.416" font-family="Times,serif" font-size="10.00" fill="blue">http://khalidaloufi.sa/quran#Surah</text>
</a>
</g>
</g>
<!-- http://khalidaloufi.sa/quran#surrahname -->
<g id="node2" class="node"><title>http://khalidaloufi.sa/quran#surrahname</title>
<g id="a_node2"><a xlink:href="http://khalidaloufi.sa/quran#surrahname" xlink:title="rdf:Property:\nhttp://khalidaloufi.sa/quran#surrahname">
<polygon fill="none" stroke="black" points="358,-191.916 49,-191.916 49,-161.916 358,-161.916 358,-191.916"/>
<text text-anchor="middle" x="203.5" y="-179.916" font-family="Times,serif" font-size="10.00" fill="blue">rdf:Property:</text>
<text text-anchor="middle" x="203.5" y="-168.916" font-family="Times,serif" font-size="10.00" fill="blue">http://khalidaloufi.sa/quran#surrahname</text>
</a>
</g>
</g>
<!-- http://khalidaloufi.sa/quran#surrahname&#45;&gt;http://khalidaloufi.sa/quran#Surah -->
<g id="edge3" class="edge"><title>http://khalidaloufi.sa/quran#surrahname&#45;&gt;http://khalidaloufi.sa/quran#Surah</title>
<path fill="none" stroke="blue" d="M358.331,-166.334C404.326,-162.387 454.801,-157.279 501,-150.916 538.019,-145.818 579.351,-138.02 611.325,-131.521"/>
<polygon fill="blue" stroke="blue" points="612.267,-134.901 621.359,-129.462 610.86,-128.044 612.267,-134.901"/>
<text text-anchor="middle" x="459.5" y="-162.916" font-family="Times,serif" font-size="10.00">rdfs:domain</text>
</g>
<!-- http://khalidaloufi.sa/quran#Ayah -->
<g id="node3" class="node"><title>http://khalidaloufi.sa/quran#Ayah</title>
<g id="a_node3"><a xlink:href="http://khalidaloufi.sa/quran#Ayah" xlink:title="http://khalidaloufi.sa/quran#Ayah">
<polygon fill="none" stroke="black" points="798.5,-186.416 534.5,-186.416 534.5,-167.416 798.5,-167.416 798.5,-186.416"/>
<text text-anchor="middle" x="666.5" y="-174.416" font-family="Times,serif" font-size="10.00" fill="blue">http://khalidaloufi.sa/quran#Ayah</text>
</a>
</g>
</g>
<!-- http://khalidaloufi.sa/quran#surrahname&#45;&gt;http://khalidaloufi.sa/quran#Ayah -->
<g id="edge1" class="edge"><title>http://khalidaloufi.sa/quran#surrahname&#45;&gt;http://khalidaloufi.sa/quran#Ayah</title>
<path fill="none" stroke="blue" d="M358.38,-187.639C404.263,-189.622 454.665,-190.604 501,-188.916 513.419,-188.464 526.355,-187.82 539.275,-187.063"/>
<polygon fill="blue" stroke="blue" points="539.855,-190.534 549.624,-186.432 539.429,-183.547 539.855,-190.534"/>
<text text-anchor="middle" x="459.5" y="-191.916" font-family="Times,serif" font-size="10.00">rdfs:domain</text>
</g>
<!-- http://www.w3.org/2001/XMLSchema#string -->
<g id="node4" class="node"><title>http://www.w3.org/2001/XMLSchema#string</title>
<g id="a_node4"><a xlink:href="http://www.w3.org/2001/XMLSchema#string" xlink:title="http://www.w3.org/2001/XMLSchema#string">
<polygon fill="none" stroke="black" points="821,-61.4163 512,-61.4163 512,-42.4163 821,-42.4163 821,-61.4163"/>
<text text-anchor="middle" x="666.5" y="-49.4163" font-family="Times,serif" font-size="10.00" fill="blue">http://www.w3.org/2001/XMLSchema#string</text>
</a>
</g>
</g>
<!-- http://khalidaloufi.sa/quran#surrahname&#45;&gt;http://www.w3.org/2001/XMLSchema#string -->
<g id="edge2" class="edge"><title>http://khalidaloufi.sa/quran#surrahname&#45;&gt;http://www.w3.org/2001/XMLSchema#string</title>
<path fill="none" stroke="blue" d="M240.969,-161.805C283.035,-144.837 354.561,-117.395 418,-99.9163 475.736,-84.0091 542.455,-71.3942 592.063,-63.0963"/>
<polygon fill="blue" stroke="blue" points="592.769,-66.5273 602.064,-61.4431 591.627,-59.621 592.769,-66.5273"/>
<text text-anchor="middle" x="459.5" y="-102.916" font-family="Times,serif" font-size="10.00">rdfs:range</text>
</g>
<!-- http://khalidaloufi.sa/quran#surrahname_no_diacratic -->
<g id="node5" class="node"><title>http://khalidaloufi.sa/quran#surrahname_no_diacratic</title>
<g id="a_node5"><a xlink:href="http://khalidaloufi.sa/quran#surrahname_no_diacratic" xlink:title="rdf:Property:\nhttp://khalidaloufi.sa/quran#surrahname_no_diacratic">
<polygon fill="none" stroke="black" points="407,-77.9163 2.84217e-14,-77.9163 2.84217e-14,-47.9163 407,-47.9163 407,-77.9163"/>
<text text-anchor="middle" x="203.5" y="-65.9163" font-family="Times,serif" font-size="10.00" fill="blue">rdf:Property:</text>
<text text-anchor="middle" x="203.5" y="-54.9163" font-family="Times,serif" font-size="10.00" fill="blue">http://khalidaloufi.sa/quran#surrahname_no_diacratic</text>
</a>
</g>
</g>
<!-- http://khalidaloufi.sa/quran#surrahname_no_diacratic&#45;&gt;http://khalidaloufi.sa/quran#Surah -->
<g id="edge6" class="edge"><title>http://khalidaloufi.sa/quran#surrahname_no_diacratic&#45;&gt;http://khalidaloufi.sa/quran#Surah</title>
<path fill="none" stroke="blue" d="M282.858,-47.9056C344.321,-39.6269 430.902,-35.8159 501,-62.9163 507.163,-65.2989 506.258,-69.6479 512,-72.9163 540.834,-89.3289 576.044,-100.64 605.465,-108.046"/>
<polygon fill="blue" stroke="blue" points="604.66,-111.452 615.203,-110.41 606.311,-104.65 604.66,-111.452"/>
<text text-anchor="middle" x="459.5" y="-65.9163" font-family="Times,serif" font-size="10.00">rdfs:domain</text>
</g>
<!-- http://khalidaloufi.sa/quran#surrahname_no_diacratic&#45;&gt;http://khalidaloufi.sa/quran#Ayah -->
<g id="edge4" class="edge"><title>http://khalidaloufi.sa/quran#surrahname_no_diacratic&#45;&gt;http://khalidaloufi.sa/quran#Ayah</title>
<path fill="none" stroke="blue" d="M265.345,-77.9578C325.341,-92.8717 419.605,-116.525 501,-137.916 505.901,-139.204 507.088,-139.671 512,-140.916 545.612,-149.438 583.546,-158.341 613.294,-165.162"/>
<polygon fill="blue" stroke="blue" points="612.522,-168.576 623.051,-167.391 614.082,-161.752 612.522,-168.576"/>
<text text-anchor="middle" x="459.5" y="-140.916" font-family="Times,serif" font-size="10.00">rdfs:domain</text>
</g>
<!-- http://khalidaloufi.sa/quran#surrahname_no_diacratic&#45;&gt;http://www.w3.org/2001/XMLSchema#string -->
<g id="edge5" class="edge"><title>http://khalidaloufi.sa/quran#surrahname_no_diacratic&#45;&gt;http://www.w3.org/2001/XMLSchema#string</title>
<path fill="none" stroke="blue" d="M264.242,-47.8587C324.001,-34.5456 418.628,-18.2012 501,-24.9163 537.57,-27.8976 578.263,-34.5479 610.027,-40.502"/>
<polygon fill="blue" stroke="blue" points="609.531,-43.9704 620.009,-42.4052 610.842,-37.0942 609.531,-43.9704"/>
<text text-anchor="middle" x="459.5" y="-27.9163" font-family="Times,serif" font-size="10.00">rdfs:range</text>
</g>
</g>
</svg>
